<svg style="overflow: hidden; position: relative; left: -0.5px; top: 0.400002px;" xmlns="http://www.w3.org/2000/svg" width="790" version="1.1" height="680"><desc>Created with Raphaël 2.0.1</desc><defs></defs><rect style="" stroke="none" fill="#242424" ry="0" rx="0" r="0" height="680" width="790" y="0" x="0"></rect><rect opacity="0.2" stroke-width="0" style="opacity: 0.2;" transform="matrix(1,0,0,1,-59,-147)" stroke="none" fill="#ffffff" ry="5" rx="5" r="5" height="294" width="118" y="234" x="264"></rect><rect opacity="0.2" stroke-width="0" style="opacity: 0.2;" transform="matrix(1,0,0,1,-70,-131.5)" stroke="none" fill="#ffffff" ry="5" rx="5" r="5" height="263" width="140" y="499" x="538"></rect><rect opacity="0.2" stroke-width="0" style="opacity: 0.2;" transform="matrix(1,0,0,1,-46,-108.5)" stroke="none" fill="#ffffff" ry="5" rx="5" r="5" height="217" width="92" y="238" x="204"></rect><rect opacity="0.2" stroke-width="0" style="opacity: 0.2;" transform="matrix(1,0,0,1,-76.5,-115.5)" stroke="none" fill="#ffffff" ry="5" rx="5" r="5" height="231" width="153" y="522" x="361"></rect><rect opacity="0.2" stroke-width="0" style="opacity: 0.2;" transform="matrix(1,0,0,1,-71,-85.5)" stroke="none" fill="#ffffff" ry="5" rx="5" r="5" height="171" width="142" y="171" x="101"></rect><rect opacity="0.2" stroke-width="0" style="opacity: 0.2;" transform="matrix(1,0,0,1,-56,-108)" stroke="none" fill="#ffffff" ry="5" rx="5" r="5" height="216" width="112" y="83" x="707"></rect><rect opacity="0.2" stroke-width="0" style="opacity: 0.2;" transform="matrix(1,0,0,1,-58.5,-86)" stroke="none" fill="#ffffff" ry="5" rx="5" r="5" height="172" width="117" y="150" x="477"></rect><rect opacity="0.2" stroke-width="0" style="opacity: 0.2;" transform="matrix(1,0,0,1,-77,-105)" stroke="none" fill="#ffffff" ry="5" rx="5" r="5" height="210" width="154" y="205" x="105"></rect><rect opacity="0.2" stroke-width="0" style="opacity: 0.2;" transform="matrix(1,0,0,1,-55.5,-122.5)" stroke="none" fill="#ffffff" ry="5" rx="5" r="5" height="245" width="111" y="465" x="143"></rect><rect opacity="0.2" stroke-width="0" style="opacity: 0.2;" transform="matrix(1,0,0,1,-61,-149.5)" stroke="none" fill="#ffffff" ry="5" rx="5" r="5" height="299" width="122" y="80" x="248"></rect><rect opacity="0.2" stroke-width="0" style="opacity: 0.2;" transform="matrix(1,0,0,1,-62.5,-143)" stroke="none" fill="#ffffff" ry="5" rx="5" r="5" height="286" width="125" y="545" x="466"></rect><rect opacity="0.2" stroke-width="0" style="opacity: 0.2;" transform="matrix(1,0,0,1,-46.5,-124.5)" stroke="none" fill="#ffffff" ry="5" rx="5" r="5" height="249" width="93" y="549" x="632"></rect><rect opacity="0.2" stroke-width="0" style="opacity: 0.2;" transform="matrix(1,0,0,1,-61.5,-82)" stroke="none" fill="#ffffff" ry="5" rx="5" r="5" height="164" width="123" y="136" x="213"></rect><rect opacity="0.2" stroke-width="0" style="opacity: 0.2;" transform="matrix(1,0,0,1,-70.5,-131.5)" stroke="none" fill="#ffffff" ry="5" rx="5" r="5" height="263" width="141" y="522" x="387"></rect><rect opacity="0.2" stroke-width="0" style="opacity: 0.2;" transform="matrix(1,0,0,1,-71,-152)" stroke="none" fill="#ffffff" ry="5" rx="5" r="5" height="304" width="142" y="190" x="513"></rect><rect opacity="0.2" stroke-width="0" style="opacity: 0.2;" transform="matrix(1,0,0,1,-54.5,-108.5)" stroke="none" fill="#ffffff" ry="5" rx="5" r="5" height="217" width="109" y="316" x="710"></rect><rect opacity="0.2" stroke-width="0" style="opacity: 0.2;" transform="matrix(1,0,0,1,-69.5,-152)" stroke="none" fill="#ffffff" ry="5" rx="5" r="5" height="304" width="139" y="588" x="468"></rect><rect opacity="0.2" stroke-width="0" style="opacity: 0.2;" transform="matrix(1,0,0,1,-79.5,-159)" stroke="none" fill="#ffffff" ry="5" rx="5" r="5" height="318" width="159" y="495" x="193"></rect><rect opacity="0.2" stroke-width="0" style="opacity: 0.2;" transform="matrix(1,0,0,1,-75,-132.5)" stroke="none" fill="#ffffff" ry="5" rx="5" r="5" height="265" width="150" y="257" x="94"></rect><rect opacity="0.2" stroke-width="0" style="opacity: 0.2;" transform="matrix(1,0,0,1,-74,-123)" stroke="none" fill="#ffffff" ry="5" rx="5" r="5" height="246" width="148" y="536" x="126"></rect></svg>